<?xml version="1.0" standalone="no"?><!DOCTYPE svg PUBLIC "-//W3C//DTD SVG 1.1//EN" "http://www.w3.org/Graphics/SVG/1.1/DTD/svg11.dtd"><svg t="1678247048829" class="icon" viewBox="0 0 1024 1024" version="1.1" xmlns="http://www.w3.org/2000/svg" p-id="13779" xmlns:xlink="http://www.w3.org/1999/xlink" width="48" height="48"><path d="M883.19852 0.00128H140.80084A140.159562 140.159562 0 0 0 0.00128 140.80084v742.39768A140.159562 140.159562 0 0 0 140.80084 1023.99808h742.39768a140.159562 140.159562 0 0 0 140.79956-140.79956V140.80084A140.159562 140.159562 0 0 0 883.19852 0.00128zM959.99828 883.19852a76.79976 76.79976 0 0 1-76.79976 76.79976H140.80084A76.79976 76.79976 0 0 1 64.00108 883.19852V140.80084A76.79976 76.79976 0 0 1 140.80084 64.00108h742.39768A76.79976 76.79976 0 0 1 959.99828 140.80084z" p-id="13780"></path><path d="M665.5992 261.120464a31.9999 31.9999 0 0 0 31.9999-31.9999 31.9999 31.9999 0 0 0-31.9999-31.9999H183.680706a31.9999 31.9999 0 0 0-31.9999 31.9999 31.9999 31.9999 0 0 0 31.9999 31.9999h211.19934v533.758332a32.639898 32.639898 0 0 0 31.9999 31.9999 31.9999 31.9999 0 0 0 31.9999-31.9999V261.120464z" p-id="13781"></path><path d="M840.318654 418.559972H546.559572A31.9999 31.9999 0 0 0 511.99968 447.99988a31.9999 31.9999 0 0 0 31.9999 31.9999h116.479636v312.319024a31.9999 31.9999 0 1 0 63.9998 0V482.559772h113.279646a31.9999 31.9999 0 0 0 31.9999-31.9999 31.9999 31.9999 0 0 0-29.439908-31.9999z" p-id="13782"></path></svg>